<svg id="Layer_1" enable-background="new 0 0 510.124 510.124" height="512" viewBox="0 0 510.124 510.124" width="512" xmlns="http://www.w3.org/2000/svg"><path d="m101.026 188.844 44.976 17.583c7.743 3.028 16.509.48 21.445-6.122l42.25-56.512c6.001-8.027 4.863-19.548-2.976-25.794-5.643-4.496-13.052-5.129-19.138-2.351v-27.726c22.942 1.842 45.883-15.126 68.825-7.908 3.587 1.128 7.232-1.577 7.232-5.337v-44.931c0-2.23-1.331-4.243-3.373-5.14-27.087-11.893-53.871 13.36-80.931 4.787-3.56-1.128-7.172 1.627-7.172 5.361v97.199l-25.811 35.083-31.923-12.48 24.276 3.349 6.97-9.322c-5.129-6.148-12.845-10.063-21.478-10.063h-49.86c-15.442 0-27.96 12.518-27.96 27.96v143.452h.025l-2.986 71.337-39.993 97.071c-4.841 11.75.759 25.199 12.509 30.04 11.849 4.88 25.239-.859 30.039-12.509l41.539-100.82c1.022-2.481 1.603-5.122 1.715-7.803 3.41-81.77 3.21-76.123 3.211-77.314h10.983l26.277 71.642 14.789 108.634c1.718 12.617 13.341 21.408 25.902 19.695 12.591-1.714 21.409-13.311 19.695-25.902l-15.125-111.109c-.224-1.645-.625-3.261-1.197-4.819l-21.602-58.896v-88.038c-3.625-.418-7.194-1.703-10.378-3.915z"/><ellipse cx="105.928" cy="83.14" rx="41.389" ry="41.389" transform="matrix(.998 -.071 .071 .998 -5.627 7.718)"/><circle cx="344.871" cy="41.389" r="41.389"/><path d="m416.965 93.939v80.242l-38.354-1.072-17.496-39.073 20.13 27.548 9.856.272v-37.128c0-15.442-12.518-27.959-27.959-27.959h-49.861c-15.442 0-27.96 12.518-27.96 27.96v143.452h.025l-2.986 71.337-39.993 97.07c-4.841 11.75.759 25.199 12.509 30.04 11.849 4.88 25.239-.859 30.039-12.509l41.539-100.82c1.022-2.481 1.603-5.122 1.715-7.803 3.41-81.77 3.21-76.123 3.211-77.314h10.983l26.277 71.642 14.789 108.634c1.718 12.617 13.341 21.408 25.902 19.695 12.591-1.714 21.409-13.311 19.695-25.902l-15.125-111.109c-.224-1.645-.625-3.261-1.197-4.819l-21.602-58.896v-45.547c-3.146-.087-27.063-.748-30.805-.851-10.465-.29-19.04-7.777-21.138-17.579l-11.643-54.369 22.224 49.631c2.89 6.454 9.222 10.682 16.291 10.877l63.303 1.75c.173.005.345.007.518.007 9.93 0 18.114-7.91 18.391-17.898.262-9.473-6.684-17.465-15.858-18.734v-27.608c22.942 1.842 45.883-15.126 68.825-7.909 3.587 1.128 7.232-1.577 7.232-5.337v-44.93c0-2.23-1.331-4.243-3.373-5.14-27.087-11.893-53.87 13.36-80.93 4.787-3.562-1.127-7.174 1.628-7.174 5.362z"/></svg>