<svg height="511pt" viewBox="-99 0 511 511.99891" width="511pt" xmlns="http://www.w3.org/2000/svg"><path d="m257.714844 263.335938c-.109375 0-.21875-.007813-.324219-.011719.09375.003906.3125.011719.324219.011719zm0 0"/><path d="m300.488281 249.570312c.5625-.230468.757813-.378906 1.132813-.648437-.367188.261719-.597656.421875-1.132813.648437zm0 0"/><path d="m19.433594 99.675781c33.375 45.050781 54.457031 72.726563 54.457031 72.726563v76.542968c9.585937 1.8125 11.574219 4.238282 18.726563 4.238282 6.839843 0 13.78125-2.761719 18.828124-9.066406 7.238282-9.035157 17.933594-13.699219 28.476563-13.695313 15.046875 0 28.542969 9.175781 34.074219 22.988281v-28.78125l5.289062 16.230469c.800782 2.449219 2.128906 4.6875 3.894532 6.5625l3.214843 3.40625 36.59375-12.042969-11.75-12.457031-22.265625-68.289063c-2.226562-6.820312-7.351562-11.699218-15.042968-11.964843l-77.566407-.15625-46.582031-63.835938-14.789062-68.328125c-2.039063-9.414062-11.324219-15.394531-20.738282-13.355468-9.414062 2.039062-15.394531 11.320312-13.355468 20.734374l15.570312 71.941407c.515625 2.382812 1.527344 4.632812 2.964844 6.601562zm0 0"/><path d="m55.667969 377.78125-25.007813 106.34375c-2.867187 12.191406 4.691406 24.402344 16.882813 27.265625 12.191406 2.867187 24.398437-4.6875 27.265625-16.882813l31.515625-134.007812c-6.863281 6.417969-15.089844 11.335938-24.136719 14.316406-8.527344 2.804688-17.464844 3.84375-26.519531 2.964844zm0 0"/><path d="m173.996094 300.28125v-.292969l-3.960938 1.300781c.542969 2.632813 4.058594 11.800782-1.636718 21.65625-4.550782 7.882813-13.335938 12.585938-23.492188 12.585938-4.253906 0-5.054688-.726562-9.28125-.273438l37.449219 159.25c2.875 12.222657 15.105469 19.742188 27.269531 16.882813 12.191406-2.863281 19.75-15.074219 16.882812-27.265625zm0 0"/><path d="m251.996094 274.316406-33.140625 10.90625 9.308593 9.867188c6.621094 7.015625 17.65625 7.320312 24.652344.714844 5.785156-5.457032 7-13.925782 3.53125-20.660157-1.488281-.101562-2.949218-.378906-4.351562-.828125zm0 0"/><path d="m163.113281 90.96875c0 21.632812-17.539062 39.167969-39.167969 39.167969-21.632812 0-39.171874-17.535157-39.171874-39.167969s17.539062-39.167969 39.171874-39.167969c21.628907 0 39.167969 17.535157 39.167969 39.167969zm0 0"/><path d="m145.117188 261.40625c6.515624-2.9375 13.933593-1.882812 19.394531 2.132812-.226563-1.570312-.597657-3.144531-1.144531-4.707031-3.53125-10.085937-13.1875-16.550781-23.445313-16.550781-7.1875 0-14.390625 3.21875-19.21875 9.25-7.476563 9.332031-18.035156 13.511719-28.085937 13.511719-4.351563 0-8.703126-.773438-12.867188-2.261719-10.4375-3.742188-20.960938-3.136719-17.496094-3.113281-28.796875-.199219-53.570312 23.035156-53.6875 53.207031-.148437 38.117188 39.09375 64.136719 74.3125 49.007812-9.75-3.710937-18.140625-11.066406-22.910156-21.332031-9.433594-20.285156-.878906-44.699219 19.136719-54.691406 21.273437-10.613281 29.160156 2.316406 45.574219-5.792969l.488281-.242187c11.722656-5.785157 9.769531-13.832031 19.949219-18.417969zm0 0"/><path d="m298.851562 250.144531c-.09375.035157-.1875.070313-.289062.109375 2.679688-.894531 2.402344-.804687.289062-.109375zm0 0"/><path d="m246.070312 243.15625.152344.464844-81.707031 26.890625c-.636719 3.132812-.746094 4.363281-2.390625 7.632812-2.332031 4.628907-3.796875 9.609375-4.269531 14.671875 16.863281-5.550781 71.617187-23.574218 88.605469-29.160156l6.542968-2.15625h.003906c1.84375 1.710938 4.46875 2.265625 6.8125 1.492188 5.378907-1.75 30.25-9.898438 49.984376-16.371094 4.644531-1.523438 3.871093-8.320313-1-8.761719-24.972657-2.261719-55.242188-5-55.296876-5-5.253906 0-9.121093 5.183594-7.4375 10.296875zm0 0"/></svg>