<svg height="512pt" viewBox="0 -31 512 511" width="512pt" xmlns="http://www.w3.org/2000/svg"><path d="m512 8c0-4.144531-3.359375-7.5-7.5-7.5h-497c-4.140625 0-7.5 3.355469-7.5 7.5v434.875c0 4.144531 3.359375 7.5 7.5 7.5h497c4.140625 0 7.5-3.355469 7.5-7.5zm-147.570312 396.3125h-216.859376c-4.140624 0-7.5 3.355469-7.5 7.5v23.5625h-62.945312v-47.125h302.445312c4.144532 0 7.5-3.355469 7.5-7.5s-3.355468-7.5-7.5-7.5h-302.445312v-110.8125c0-4.144531-3.359375-7.5-7.5-7.5s-7.5 3.355469-7.5 7.5v38.082031l-44.019531-44.019531 44.019531-44.019531v14.957031c0 4.140625 3.359375 7.5 7.5 7.5s7.5-3.359375 7.5-7.5v-149.8125h29.230469v13.941406c-4.769531 1.574219-9.011719 4.8125-11.714844 9.496094l-5.730469 9.925781c-5.859375 10.148438-2.390625 23.097657 7.757813 28.957031l13.570312 7.835938c-.097656 2.6875 1.25 5.339844 3.742188 6.777344l20.292969 11.714844c3.570312 2.0625 8.164062.859374 10.242187-2.746094l23.429687-40.578125c2.070313-3.585938.84375-8.171875-2.746093-10.246094l-20.289063-11.714844c-2.390625-1.378906-5.367187-1.34375-7.742187.152344-13.820313-7.914063-13.554688-7.976563-15.808594-8.945313v-14.570312h269.285156v14.570312c-2.273437.980469-2.324219 1.222657-15.808593 8.945313-2.382813-1.5-5.355469-1.527344-7.742188-.152344l-20.289062 11.714844c-3.589844 2.074219-4.816407 6.660156-2.746094 10.246094l23.429687 40.578125c2.074219 3.601562 6.664063 4.8125 10.242188 2.746094l20.292969-11.714844c2.492187-1.4375 3.839843-4.089844 3.742187-6.777344l13.570313-7.835938c10.148437-5.859374 13.617187-18.8125 7.757812-28.957031l-5.730469-9.925781c-2.703125-4.683594-6.945312-7.925781-11.714843-9.5v-13.9375h29.230468v295.625h-20.304687c-4.140625 0-7.5 3.355469-7.5 7.5 0 4.140625 3.359375 7.5 7.5 7.5h20.304687v47.125h-62.945312v-23.5625c-.003906-4.144531-3.363282-7.5-7.503906-7.5zm-346.324219-23.5625 44.019531-44.019531v88.039062zm349.988281-263.019531 15.929688 27.589843-7.296876 4.214844-15.929687-27.589844zm26.921875 16.625-11.929687-20.660157 7.558593-4.363281v4.441407c0 4.144531 3.355469 7.5 7.5 7.5 4.140625 0 7.5-3.355469 7.5-7.5v-3.007813l4.457031 7.722656c1.710938 2.964844.699219 6.753907-2.269531 8.464844zm-7.265625-71.730469v-36.519531l36.519531 36.519531zm-51.519531 0 36.519531-36.519531v36.519531zm-124.25 0 36.519531-36.519531v36.519531zm-124.25 0 36.519531-36.519531v36.519531zm63.472656 59.320312-15.925781 27.589844-7.300782-4.214844 15.929688-27.589843zm-34.21875 12.410157-12.816406-7.402344c-2.96875-1.710937-3.980469-5.5-2.269531-8.464844l4.457031-7.722656v3.007813c0 4.144531 3.359375 7.5 7.5 7.5 4.144531 0 7.5-3.355469 7.5-7.5v-4.441407l7.558593 4.363281zm-54.859375 41.914062-44.019531-44.019531 44.019531-44.019531zm77.125-150.164062 36.519531 36.519531h-36.519531zm124.25 0 36.519531 36.519531h-36.519531zm230.394531 106.144531-44.019531 44.019531v-88.039062zm-44.019531 80.230469 44.019531 44.019531-44.019531 44.015625zm47.125 62.125v36.519531h-36.519531zm-36.519531-72.730469h36.519531v36.519531zm36.519531-15h-36.519531l36.519531-36.519531zm-36.519531-109.25h36.519531v36.519531zm36.519531-15h-36.519531l36.519531-36.519531zm-54.625-3.105469-44.019531-44.019531h88.039062zm-124.25 0-44.019531-44.019531h88.039062zm-124.25 0-44.019531-44.019531h88.039062zm-124.25 0-44.019531-44.019531h88.039062zm-18.105469 3.105469h-36.519531v-36.519531zm-36.519531 15h36.519531l-36.519531 36.519531zm36.519531 109.25h-36.519531v-36.519531zm-36.519531 15h36.519531l-36.519531 36.519531zm0 72.730469 36.519531 36.519531h-36.519531zm0 51.519531h36.519531l-36.519531 36.519531zm434.875 10.605469 44.019531 44.019531-44.019531 44.015625zm10.605469-10.605469h36.519531v36.519531zm-445.480469 72.730469 36.519531 36.519531h-36.519531zm140.070312 36.519531v-16.0625h201.859376v16.0625zm305.410157 0 36.519531-36.519531v36.519531zm0 0"/><path d="m307.664062 172.519531-111.480468 29.871094c-3.277344.878906-5.558594 3.847656-5.558594 7.242187v33.867188c0 4.140625 3.359375 7.5 7.5 7.5 4.144531 0 7.5-3.359375 7.5-7.5v-28.109375l96.480469-25.855469v109.058594c0 11.230469-9.136719 20.371094-20.371094 20.371094-11.230469 0-20.367187-9.140625-20.367187-20.371094 0-11.234375 9.136718-20.371094 20.367187-20.371094 1.941406 0 3.875.28125 5.75.828125 4.816406 1.410157 9.613281-2.207031 9.613281-7.195312v-52.488281c0-2.332032-1.085937-4.53125-2.933594-5.949219-1.851562-1.421875-4.257812-1.898438-6.507812-1.296875l-71.460938 19.148437c-3.28125.878907-5.558593 3.851563-5.558593 7.246094v89.949219c0 11.230468-9.140625 20.371094-20.371094 20.371094s-20.371094-9.140626-20.371094-20.371094c0-11.234375 9.140625-20.371094 20.371094-20.371094 1.941406 0 3.875.277344 5.75.828125 4.8125 1.410156 9.613281-2.207031 9.613281-7.195313v-23.226562c0-4.144531-3.359375-7.5-7.5-7.5-4.144531 0-7.5 3.355469-7.5 7.5v14.597656c-20.066406-.164062-35.734375 16.105469-35.734375 35.367188 0 19.503906 15.867188 35.371094 35.371094 35.371094s35.371094-15.867188 35.371094-35.371094v-84.195313l56.460937-15.128906v34.085937c-20.066406-.164062-35.730468 16.105469-35.730468 35.367188 0 19.503906 15.867187 35.371094 35.367187 35.371094 19.503906 0 35.371094-15.867188 35.371094-35.371094v-118.832031c0-4.941407-4.703125-8.519531-9.441407-7.242188zm0 0"/><path d="m359.496094 161.398438c-3.5-2.21875-8.132813-1.183594-10.351563 2.3125l-12.828125 20.214843c-2.21875 3.496094-1.183594 8.132813 2.3125 10.351563 3.507813 2.222656 8.136719 1.175781 10.351563-2.3125l12.828125-20.214844c2.21875-3.496094 1.183594-8.132812-2.3125-10.351562zm0 0"/><path d="m310.488281 139.75c.105469 0 .210938-.003906.320313-.007812l23.933594-1.003907c4.136718-.171875 7.351562-3.667969 7.179687-7.804687-.175781-4.140625-3.667969-7.378906-7.808594-7.179688l-23.933593 1.003906c-4.140626.171876-7.355469 3.667969-7.179688 7.804688.167969 4.03125 3.492188 7.1875 7.488281 7.1875zm0 0"/><path d="m351.4375 145.738281c-2.070312-3.585937-6.660156-4.8125-10.242188-2.746093l-21.632812 12.492187c-3.589844 2.070313-4.816406 6.65625-2.746094 10.246094 2.082032 3.605469 6.675782 4.804687 10.246094 2.742187l21.632812-12.488281c3.585938-2.070313 4.816407-6.660156 2.742188-10.246094zm0 0"/><path d="m173.371094 194.277344c3.496094-2.21875 4.53125-6.851563 2.3125-10.351563l-12.828125-20.214843c-2.21875-3.496094-6.851563-4.53125-10.351563-2.3125-3.496094 2.21875-4.53125 6.855468-2.3125 10.351562l12.828125 20.214844c2.21875 3.496094 6.851563 4.53125 10.351563 2.3125zm0 0"/><path d="m177.257812 138.738281 23.933594 1.003907c.109375.003906.214844.007812.320313.007812 3.996093 0 7.316406-3.152344 7.488281-7.1875.171875-4.136719-3.042969-7.632812-7.179688-7.804688l-23.933593-1.003906c-4.160157-.207031-7.636719 3.039063-7.808594 7.179688-.171875 4.136718 3.042969 7.632812 7.179687 7.804687zm0 0"/><path d="m163.304688 155.984375 21.632812 12.488281c3.574219 2.0625 8.167969.859375 10.246094-2.742187 2.070312-3.589844.84375-8.175781-2.746094-10.246094l-21.632812-12.492187c-3.585938-2.066407-8.171876-.839844-10.242188 2.746093-2.074219 3.585938-.84375 8.175781 2.742188 10.246094zm0 0"/></svg>