<svg height="511pt" viewBox="0 0 511.99999 511" width="511pt" xmlns="http://www.w3.org/2000/svg"><path d="m489.535156 2.476562c-13.980468-4.863281-35.707031-1.824218-54.78125 21.3125l-63.515625 77.042969-6.824219 6.835938c-3.902343 3.90625-3.894531 10.238281.011719 14.140625 3.910157 3.902344 10.242188 3.898437 14.144531-.011719l.082032-.082031 14.507812 14.53125-189.433594 189.753906-14.507812-14.53125 37.675781-37.746094c.027344-.023437.050781-.046875.070313-.070312l102.230468-102.398438c3.898438-3.910156 3.894532-10.238281-.011718-14.144531-3.910156-3.898437-10.242188-3.894531-14.144532.015625l-90.449218 90.597656c-2.144532-12.011718.402344-21.03125 4.191406-34.425781.417969-1.46875.84375-2.972656 1.269531-4.519531 4.785157-17.195313-6.269531-31.210938-19.09375-35.667969-12.113281-4.207031-28.613281-.464844-36.234375 17.6875-.019531.050781-.042968.105469-.0625.15625-17.460937 43.648437-31.003906 70.832031-71.722656 80.292969-35.785156 8.316406-64.085938 25.269531-81.851562 49.023437-15.375 20.566407-22.753907 46.25-20.769532 72.3125 3.140625 41.25 30.488282 73.261719 46.511719 88.671875 20.601563 19.816406 50.425781 31.203125 79.683594 31.203125 6.191406 0 12.363281-.511719 18.414062-1.5625 29.5625-5.125 52.921875-22.183593 65.773438-48.027343 2.457031-4.945313.441406-10.945313-4.503907-13.40625-4.945312-2.457032-10.945312-.441407-13.40625 4.503906-9.941406 19.996094-28.152343 33.214844-51.277343 37.226562-28.566407 4.953125-60.289063-4.605468-80.820313-24.351562-13.96875-13.4375-37.796875-41.144532-40.433594-75.773438-2.894531-38.035156 18.496094-84.371094 87.203126-100.335937 49.9375-11.601563 67.046874-45.5625 85.734374-92.265625 3.160157-7.457032 7.828126-7.636719 11.195313-6.464844 3.507813 1.21875 8.105469 5.265625 6.394531 11.414062-.425781 1.519532-.839844 2.992188-1.246094 4.433594-5.117187 18.070313-9.230468 32.652344-1.257812 56.210938l-40.273438 40.339844c-3.894531 3.90625-3.894531 10.230468 0 14.132812l28.640626 28.6875c1.875 1.878906 4.421874 2.933594 7.074218 2.933594 2.65625 0 5.203125-1.054688 7.078125-2.933594l38.984375-39.050781c12.144532 7.707031 25.445313 12.859375 48.824219 4.136719 2.5625-.953126 4.542969-.867188 5.890625.265624 1.628906 1.371094 2.34375 4.066407 1.816406 6.867188-1.050781 5.589844-6.453125 10.4375-14.824218 13.292969-46.386719 15.820312-57.769532 22.449219-72.917969 56.714843-2.234375 5.050782.050781 10.957032 5.101562 13.1875 1.316407.582032 2.6875.859376 4.039063.859376 3.835937 0 7.5-2.222657 9.148437-5.960938 11.941407-27.003906 17.082031-30.863281 61.085938-45.871094 15.394531-5.253906 25.609375-15.652344 28.023437-28.535156 1.859375-9.921875-1.433594-19.828125-8.597656-25.859375-6.960938-5.859375-16.347656-7.207031-25.753906-3.699219-12.765625 4.761719-19.742188 3.960938-27.246094-.015625l148.84375-149.09375c4.179688-2.09375 7.953125-3.960937 11.375-5.65625 35.375-17.523437 37.289062-19.425781 51.242188-50.917969 1.417968-3.199218 2.992187-6.753906 4.78125-10.714843 1.734374-3.839844 5.820312-6.828125 10.554687-10.289063 8.179687-5.980468 19.378906-14.167968 20.792969-31.132812.027344-.339844.039062-.683594.03125-1.023438-.285156-15.164062-8.894532-27.519531-22.460938-32.246094zm-10.167968 48.261719c-6.125 4.476563-13.070313 9.558594-16.976563 18.199219-1.8125 4.011719-3.402344 7.605469-4.839844 10.847656-5.996093 13.53125-9.003906 20.324219-13.476562 24.746094-4.671875 4.617188-12.585938 8.535156-28.355469 16.347656-2.019531 1-4.171875 2.066406-6.449219 3.199219l-17.128906-17.160156 58.046875-70.40625c12.554688-15.230469 25.5-17.679688 32.765625-15.148438 5.480469 1.910157 8.753906 6.714844 9.035156 13.230469-.769531 7.164062-4.90625 10.503906-12.621093 16.144531zm0 0"/><path d="m342.6875 153.585938c2.558594 0 5.117188-.980469 7.070312-2.929688l.191407-.191406c3.90625-3.90625 3.90625-10.238282 0-14.144532-3.90625-3.902343-10.234375-3.902343-14.144531 0l-.191407.191407c-3.90625 3.90625-3.90625 10.238281 0 14.144531 1.953125 1.953125 4.515625 2.929688 7.074219 2.929688zm0 0"/><path d="m161.566406 392.382812c2.558594 0 5.113282-.976562 7.066406-2.921874 3.910157-3.902344 3.914063-10.234376.011719-14.144532l-28.636719-28.6875c-3.902343-3.90625-10.234374-3.914062-14.144531-.011718-3.90625 3.902343-3.914062 10.234374-.011719 14.144531l28.636719 28.6875c1.957031 1.957031 4.519531 2.933593 7.078125 2.933593zm0 0"/><path d="m95.488281 377.046875c-3.90625 3.902344-3.910156 10.230469-.011719 14.140625l28.640626 28.6875c1.953124 1.957031 4.511718 2.9375 7.074218 2.9375 2.558594 0 5.113282-.976562 7.066406-2.925781 3.90625-3.902344 3.914063-10.230469.011719-14.140625l-28.636719-28.6875c-3.902343-3.90625-10.234374-3.914063-14.144531-.011719zm0 0"/><path d="m227 420.476562c0 5.519532-4.476562 10-10 10s-10-4.480468-10-10c0-5.523437 4.476562-10 10-10s10 4.476563 10 10zm0 0"/></svg>